<svg width="20" height="18" viewBox="0 0 20 18" fill="none" xmlns="http://www.w3.org/2000/svg">
<path id="icon_download" d="M10.126 4.16603C10.3557 4.51067 10.8214 4.6038 11.166 4.37404C11.5107 4.14427 11.6038 3.67862 11.374 3.33397L10.126 4.16603ZM16.75 3C16.3358 3 16 3.33579 16 3.75C16 4.16421 16.3358 4.5 16.75 4.5V3ZM13.75 10.5L13.2197 11.0303C13.5126 11.3232 13.9874 11.3232 14.2803 11.0303L13.75 10.5ZM14.5 1.5C14.5 1.08579 14.1642 0.75 13.75 0.75C13.3358 0.75 13 1.08579 13 1.5H14.5ZM16.9053 8.40533C17.1982 8.11244 17.1982 7.63756 16.9053 7.34467C16.6124 7.05178 16.1376 7.05178 15.8447 7.34467L16.9053 8.40533ZM11.6553 7.34467C11.3624 7.05178 10.8876 7.05178 10.5947 7.34467C10.3018 7.63756 10.3018 8.11244 10.5947 8.40533L11.6553 7.34467ZM19.75 15V5.25H18.25V15H19.75ZM10.75 3.75C11.374 3.33397 11.3739 3.33376 11.3737 3.33353C11.3737 3.33344 11.3735 3.3332 11.3734 3.33303C11.3732 3.33268 11.3729 3.33229 11.3726 3.33187C11.3721 3.33103 11.3714 3.33005 11.3707 3.32893C11.3692 3.3267 11.3673 3.32393 11.365 3.32063C11.3605 3.31403 11.3545 3.30532 11.347 3.29463C11.3321 3.27328 11.3112 3.244 11.2846 3.20793C11.2314 3.13587 11.1549 3.03627 11.0566 2.9183C10.8609 2.68336 10.5739 2.37021 10.2068 2.05556C9.48449 1.4364 8.37843 0.75 7 0.75V2.25C7.87157 2.25 8.64051 2.6886 9.23066 3.19444C9.51981 3.44229 9.74852 3.69164 9.9043 3.87858C9.98178 3.97154 10.0401 4.04772 10.0777 4.09871C10.0965 4.12417 10.1101 4.14323 10.1182 4.15483C10.1222 4.16063 10.1249 4.16455 10.1262 4.16646C10.1269 4.16742 10.1272 4.16787 10.1272 4.1678C10.1271 4.16777 10.127 4.16761 10.1268 4.16731C10.1267 4.16716 10.1266 4.16698 10.1265 4.16677C10.1264 4.16666 10.1263 4.16648 10.1262 4.16642C10.1261 4.16623 10.126 4.16603 10.75 3.75ZM7 0.75H2.49989V2.25H7V0.75ZM0.25 3V15H1.75V3H0.25ZM2.5 17.25H17.5V15.75H2.5V17.25ZM17.5007 3H16.75V4.5H17.5007V3ZM2.49989 0.75C1.25717 0.75 0.25 1.75743 0.25 3H1.75C1.75 2.58571 2.08575 2.25 2.49989 2.25V0.75ZM19.75 5.25C19.75 4.00781 18.7438 3 17.5007 3V4.5C17.9145 4.5 18.25 4.83533 18.25 5.25H19.75ZM0.25 15C0.25 16.2426 1.25736 17.25 2.5 17.25V15.75C2.08579 15.75 1.75 15.4142 1.75 15H0.25ZM18.25 15C18.25 15.4142 17.9142 15.75 17.5 15.75V17.25C18.7426 17.25 19.75 16.2426 19.75 15H18.25ZM14.5 10.5V1.5H13V10.5H14.5ZM15.8447 7.34467L13.2197 9.96967L14.2803 11.0303L16.9053 8.40533L15.8447 7.34467ZM14.2803 9.96967L11.6553 7.34467L10.5947 8.40533L13.2197 11.0303L14.2803 9.96967Z" fill="#3056DE"/>
</svg>
